{
	"asset":{
		"generator":"Khronos glTF Blender I/O v4.5.47",
		"version":"2.0"
	},
	"extensionsUsed":[
		"KHR_materials_transmission",
		"KHR_materials_emissive_strength",
		"KHR_materials_ior"
	],
	"scene":0,
	"scenes":[
		{
			"name":"Scene",
			"nodes":[
				0
			]
		}
	],
	"nodes":[
		{
			"mesh":0,
			"name":"BloodCell_geometry.001"
		}
	],
	"materials":[
		{
			"doubleSided":true,
			"emissiveFactor":[
				1,
				1,
				1
			],
			"emissiveTexture":{
				"index":0
			},
			"extensions":{
				"KHR_materials_transmission":{
					"transmissionFactor":0.02777777798473835
				},
				"KHR_materials_emissive_strength":{
					"emissiveStrength":2
				},
				"KHR_materials_ior":{
					"ior":1.600000023841858
				}
			},
			"name":"Apple.001",
			"pbrMetallicRoughness":{
				"metallicFactor":0
			}
		},
		{
			"doubleSided":true,
			"emissiveFactor":[
				1,
				1,
				1
			],
			"extensions":{
				"KHR_materials_emissive_strength":{
					"emissiveStrength":695.9999389648438
				}
			},
			"name":"Glass.004",
			"pbrMetallicRoughness":{
				"baseColorFactor":[
					0,
					0,
					0,
					1
				]
			}
		}
	],
	"meshes":[
		{
			"name":"BloodCell_geometry.005",
			"primitives":[
				{
					"attributes":{
						"POSITION":0,
						"NORMAL":1,
						"TEXCOORD_0":2
					},
					"indices":3,
					"material":0
				},
				{
					"attributes":{
						"POSITION":4,
						"NORMAL":5,
						"TEXCOORD_0":6
					},
					"indices":7,
					"material":1
				}
			]
		}
	],
	"textures":[
		{
			"sampler":0,
			"source":0
		}
	],
	"images":[
		{
			"mimeType":"image/png",
			"name":"emissive_bake",
			"uri":"emissive_bake.png"
		}
	],
	"accessors":[
		{
			"bufferView":0,
			"componentType":5126,
			"count":1802,
			"max":[
				1.3055630922317505,
				0.3573145866394043,
				1.3055644035339355
			],
			"min":[
				-1.3055630922317505,
				-0.3571939468383789,
				-1.305561900138855
			],
			"type":"VEC3"
		},
		{
			"bufferView":1,
			"componentType":5126,
			"count":1802,
			"type":"VEC3"
		},
		{
			"bufferView":2,
			"componentType":5126,
			"count":1802,
			"type":"VEC2"
		},
		{
			"bufferView":3,
			"componentType":5123,
			"count":10512,
			"type":"SCALAR"
		},
		{
			"bufferView":4,
			"componentType":5126,
			"count":1802,
			"max":[
				1.3107852935791016,
				0.3668877184391022,
				1.310786247253418
			],
			"min":[
				-1.310785174369812,
				-0.3667634129524231,
				-1.3107839822769165
			],
			"type":"VEC3"
		},
		{
			"bufferView":5,
			"componentType":5126,
			"count":1802,
			"type":"VEC3"
		},
		{
			"bufferView":6,
			"componentType":5126,
			"count":1802,
			"type":"VEC2"
		},
		{
			"bufferView":7,
			"componentType":5123,
			"count":10512,
			"type":"SCALAR"
		}
	],
	"bufferViews":[
		{
			"buffer":0,
			"byteLength":21624,
			"byteOffset":0,
			"target":34962
		},
		{
			"buffer":0,
			"byteLength":21624,
			"byteOffset":21624,
			"target":34962
		},
		{
			"buffer":0,
			"byteLength":14416,
			"byteOffset":43248,
			"target":34962
		},
		{
			"buffer":0,
			"byteLength":21024,
			"byteOffset":57664,
			"target":34963
		},
		{
			"buffer":0,
			"byteLength":21624,
			"byteOffset":78688,
			"target":34962
		},
		{
			"buffer":0,
			"byteLength":21624,
			"byteOffset":100312,
			"target":34962
		},
		{
			"buffer":0,
			"byteLength":14416,
			"byteOffset":121936,
			"target":34962
		},
		{
			"buffer":0,
			"byteLength":21024,
			"byteOffset":136352,
			"target":34963
		}
	],
	"samplers":[
		{
			"magFilter":9729,
			"minFilter":9987
		}
	],
	"buffers":[
		{
			"byteLength":157376,
			"uri":"14.bin"
		}
	]
}
